<?xml version="1.0" encoding="utf-8"?>
<!-- Generator: Adobe Illustrator 21.0.0, SVG Export Plug-In . SVG Version: 6.00 Build 0)  -->
<svg version="1.1" id="Layer_1" xmlns="http://www.w3.org/2000/svg" xmlns:xlink="http://www.w3.org/1999/xlink" x="0px" y="0px"
	 width="1400px" height="980px" viewBox="0 0 1400 980" enable-background="new 0 0 1400 980" xml:space="preserve">
<g id="XMLID_1627_">
	<g id="XMLID_726_">
		<rect id="XMLID_881_" fill="#F5FAF4" width="1400" height="980"/>
		<linearGradient id="XMLID_5_" gradientUnits="userSpaceOnUse" x1="700" y1="727" x2="700" y2="2.9558">
			<stop  offset="0" style="stop-color:#EBA69A"/>
			<stop  offset="0.1223" style="stop-color:#E2A49D"/>
			<stop  offset="0.3301" style="stop-color:#CEA0A5"/>
			<stop  offset="0.598" style="stop-color:#AC9AB2"/>
			<stop  offset="0.9125" style="stop-color:#7792C3"/>
			<stop  offset="1" style="stop-color:#6491CB"/>
		</linearGradient>
		<rect id="XMLID_880_" x="28.3" y="19.8" fill="url(#XMLID_5_)" width="1343.5" height="940.4"/>
		<path id="XMLID_879_" fill="#C6A9B5" d="M636.9,203.8c49.8-36.6,350.7,6,446.4,0c95.7-6,67.3-18,142.5-54
			c49.2-23.6,110.2-21.1,146.4-16.6v107.2H28.3v-27.1C151,218.6,594,235.3,636.9,203.8z"/>
		<rect id="XMLID_878_" x="120.1" y="163.9" fill="#C3D4CA" width="67" height="460.3"/>
		<rect id="XMLID_877_" x="729" y="413.5" fill="#C3D4CA" width="39" height="460.3"/>
		<rect id="XMLID_876_" x="1079" y="413.5" fill="#C3D4CA" width="39" height="460.3"/>
		<path id="XMLID_875_" fill="#E2E3E4" d="M915,569.6c-383.6,0-717-81.7-886.7-201.9v573.5h1343.5V528
			C1234.7,554.6,1079.4,569.6,915,569.6z"/>
		<path id="XMLID_874_" fill="#ABADB0" d="M915,588.6c-383.6,0-717-81.7-886.7-201.9v573.5h1343.5V547
			C1234.7,573.6,1079.4,588.6,915,588.6z"/>
		<g id="XMLID_869_">
			<path id="XMLID_873_" fill="#809677" d="M729,960.2V648.4c-163.7-9.6-313.4-31.6-438.8-62.9l174.1,374.7H729z"/>
			<path id="XMLID_872_" fill="#809677" d="M1108.6,648c-62.6,3.8-127.3,5.8-193.6,5.8c-51,0-101.1-1.2-150-3.5l-12.3,309.9h234
				L1108.6,648z"/>
			<path id="XMLID_871_" fill="#809677" d="M240.2,572.3c-85.2-24.2-157.1-52.9-212-84.9v472.8h385.2L240.2,572.3z"/>
			<path id="XMLID_870_" fill="#809677" d="M1148.7,645.2l-134.2,315h357.2V619.5C1301.7,630.7,1227,639.4,1148.7,645.2z"/>
		</g>
		<path id="XMLID_868_" fill="#57744B" d="M698.9,791.6c-252.6,0-485.3-30.9-670.7-82.7v251.3h1343.5V708.3
			C1186,760.5,952.5,791.6,698.9,791.6z"/>
		<g id="XMLID_861_">
			<path id="XMLID_863_" fill="#ABADB0" d="M1082,917.4H801V764.9h281V917.4z M807,911.4h269V770.9H807V911.4z"/>
		</g>
		<path id="XMLID_845_" fill="#67923D" d="M698.9,856.9c-252.6,0-485.3-18.9-670.7-50.7v154.1h1343.5V805.8
			C1186,837.8,952.5,856.9,698.9,856.9z"/>
	</g>
	<g id="XMLID_1197_">
		<ellipse id="XMLID_1348_" fill="#406325" cx="706.2" cy="893" rx="169" ry="5.4"/>
		<g id="XMLID_1250_">
			<polygon id="XMLID_1020_" fill="#CEA28B" points="786.7,481.7 782.9,472.9 783.6,469.2 786,468.2 788.5,470.6 790.2,477.2 
				789.5,480.9 			"/>
			<polygon id="XMLID_1019_" fill="#CEA28B" points="815.7,481.7 819.5,472.9 818.8,469.2 816.3,468.2 813.8,470.6 812.2,477.2 
				812.8,480.9 			"/>
		</g>
		<path id="XMLID_1018_" fill="#E4B69D" d="M830.7,757.6c14.5-51.9-0.4-113.9-0.4-113.9l-27,6.3l15.4,221.5l8.9-0.4
			c0,0,11.7-63.8,4.1-92.9c2-2.2,3.2-5.8,3.2-9.8C834.9,763.7,833.2,759.7,830.7,757.6z"/>
		<path id="XMLID_1017_" fill="#B08874" d="M816.9,732.1l19.3-6.4c3.6-42.4-5.9-82-5.9-82l-27,6.3l15.4,221.5l4.6-0.2L816.9,732.1z"
			/>
		<path id="XMLID_1016_" fill="#A17A94" d="M813.2,793.6l5.4,77.9l8.9-0.4c0,0,8.2-44.4,6.5-76C826.1,797.7,817.9,795.4,813.2,793.6
			z"/>
		<path id="XMLID_1015_" fill="#936C88" d="M819.8,795.5c-2.6-0.5-4.8-1.3-6.6-2l5.4,77.9l4.6-0.2L819.8,795.5z"/>
		<path id="XMLID_1014_" fill="#E4B69D" d="M756.6,757.9c-5.9-53.5,18.9-112.5,18.9-112.5l25.7,10.2L750,872.1l-8.8-1.7
			c0,0-1.2-64.8,11-92.4c-1.6-2.5-2.3-6.2-1.6-10.2C751.4,763.3,753.8,759.6,756.6,757.9z"/>
		<path id="XMLID_1013_" fill="#B08874" d="M750,872.1l51.2-216.5l-17.3-6.9l-7,45.4l-16.8,4.1c-1.6,8-2.9,16.6-3.6,25.4l15.1,4.5
			L749.3,872L750,872.1z"/>
		<path id="XMLID_1012_" fill="#A17A94" d="M748,791.1c-7.7,31-6.8,79.4-6.8,79.4l8.8,1.7l18.5-78.2
			C758.4,796.6,751.9,794.1,748,791.1z"/>
		<path id="XMLID_1011_" fill="#936C88" d="M748,871.8l2,0.4l18.5-78.2c-2.7,0.7-5.1,1-7.3,1.1L748,871.8z"/>
		<g id="XMLID_1236_">
			<path id="XMLID_1010_" fill="#E4B69D" d="M829.9,640.8l17.2-5.2l15-40.3l-24.8-30.7l16.6-16.6l32.6,49.5c0,0-30.4,37.6-42.1,46.6
				L831,663L829.9,640.8z"/>
			<g id="XMLID_1238_">
				<polygon id="XMLID_1009_" fill="#B08874" points="856,587.8 837.3,564.6 853.9,548 856.5,551.9 				"/>
				<path id="XMLID_1008_" fill="#B08874" d="M847.1,635.6l8.6-23.2l-0.2,21c-4.3,4.6-8.3,8.5-11.2,10.6L831,663l-1.1-22.2
					L847.1,635.6z"/>
			</g>
			<polygon id="XMLID_1007_" fill="#B08874" points="884,597.1 879.9,601.2 879.4,592.8 			"/>
		</g>
		<g id="XMLID_1230_">
			<path id="XMLID_1006_" fill="#E4B69D" d="M772,640.8l-17.2-5.2l-15-40.3l24.8-30.7L748,548l-32.6,49.5c0,0,30.4,37.6,42.1,46.6
				l13.3,19L772,640.8z"/>
			<g id="XMLID_1232_">
				<polygon id="XMLID_1005_" fill="#B08874" points="745.9,587.8 764.6,564.6 748,548 745.5,551.9 				"/>
				<path id="XMLID_1004_" fill="#B08874" d="M754.8,635.6l-8.6-23.2l0.2,21c4.3,4.6,8.3,8.5,11.2,10.6l13.3,19l1.1-22.2
					L754.8,635.6z"/>
			</g>
			<polygon id="XMLID_1003_" fill="#B08874" points="717.9,597.1 722,601.2 722.5,592.8 			"/>
		</g>
		<polygon id="XMLID_1002_" points="800,683.7 803.3,728.3 846.9,722 836.1,636.8 766.3,636.8 752.9,719.6 792.8,727.5 		"/>
		<polygon id="XMLID_1000_" fill="#C6A9B5" points="841.5,722.7 834,723.8 827.7,684.6 836.5,690.2 		"/>
		<path id="XMLID_999_" d="M725.1,878.2c2.2-0.6,4.2-2.4,6-4.6l-1.9-9.9l7.5,0.4c1.9-4.1,3-7.5,3-7.5l14.3,5.1c0,0-0.1,9.3,0,12.7
			c0.1,4.8-5.3,17.4-5.3,17.4c-0.3,0.1-0.7,0.2-1,0.3v2.8h-2.2v-2.2c-0.2,0.1-0.4,0.1-0.6,0.2v2.1h-2.2v-2.7
			c-0.8-0.2-1.7-0.3-2.7-0.3c-3.5,0-6.4,1.6-7,3.6c-0.9,0.2-1.8,0.3-2.7,0.5v3.5H728v-3.1c-0.9,0.1-1.7,0.2-2.6,0.3v3.1h-2.2v-2.9
			c-0.9,0.1-1.8,0.2-2.6,0.2v2.7h-2.2v-2.6c-0.9,0-1.8,0-2.6,0v2.3h-2.2V897c-0.8-0.1-1.5-0.2-2.1-0.3v1.8h-2.2V896
			c-2.9-1.1-3.2-2.6-3.2-2.6C712,883.6,725.1,878.2,725.1,878.2z"/>
		<path id="XMLID_998_" d="M844.5,878.2c-2.2-0.6-4.2-2.4-6-4.6l1.9-9.9l-7.5,0.4c-1.9-4.1-1.4-7.5-1.4-7.5l-15.2,4.6
			c0,0-0.6,9.8-0.7,13.2c-0.1,4.8,5.3,17.4,5.3,17.4c0.3,0.1,0.7,0.2,1,0.3v2.8h2.2v-2.2c0.2,0.1,0.4,0.1,0.6,0.2v2.1h2.2v-2.7
			c0.8-0.2,1.7-0.3,2.7-0.3c3.5,0,6.4,1.6,7,3.6c0.9,0.2,1.8,0.3,2.7,0.5v3.5h2.2v-3.1c0.9,0.1,1.7,0.2,2.6,0.3v3.1h2.2v-2.9
			c0.9,0.1,1.8,0.2,2.6,0.2v2.7h2.2v-2.6c0.9,0,1.8,0,2.6,0v2.3h2.2V897c0.8-0.1,1.5-0.2,2.1-0.3v1.8h2.2V896
			c2.9-1.1,3.2-2.6,3.2-2.6C857.6,883.6,844.5,878.2,844.5,878.2z"/>
		<polygon id="XMLID_997_" fill="#895881" points="871,572.7 730.5,572.7 752.1,530.2 800.7,509.9 849.2,530.2 		"/>
		<polygon id="XMLID_995_" fill="#E4B69D" points="814.8,519.5 801.2,527.4 787.5,519.5 790.1,480.5 812.3,480.5 		"/>
		<polygon id="XMLID_994_" fill="#B08874" points="787.5,519.5 790.1,480.5 812.3,480.5 813.6,499.7 		"/>
		<path id="XMLID_1049_" fill="#8C715D" d="M819.5,443.6l-5.3-0.3l-2.7-1.9c-17.1-10.4-29.9,7.9-29.9,7.9c1.3-0.8,4.1-0.5,5.2,0.2
			c-1,2.9-1.3,4.7-1.3,4.7l1.6,18.4H812l3.2-0.5l1.5-16.6l0,0l2.8-9.6l-3.7-1.3L819.5,443.6z"/>
		<path id="XMLID_1050_" fill="#685243" d="M786.8,449.4c-1,2.9-1.3,4.7-1.3,4.7l8.9,5.6l23.4-7.8l1.8-6l-3.7-1.3l3.7-1l-5.3-0.3
			l-2.7-1.9c-17.1-10.4-29.9,7.9-29.9,7.9C783,448.3,785.8,448.6,786.8,449.4z"/>
		<polygon id="XMLID_993_" fill="#E4B69D" points="796,500.4 788.1,487 786.8,461.4 789.8,458.5 790.2,450.5 801.6,453.6 813.3,450 
			813.7,459.2 815.6,460.9 814.3,487 806.3,500.4 		"/>
		<g id="XMLID_1214_">
			<g id="XMLID_1217_">
				<polygon id="XMLID_992_" fill="#CEA28B" points="797.9,462.6 792.9,464.8 798,468.9 798.7,464 				"/>
			</g>
			<g id="XMLID_1215_">
				<polygon id="XMLID_991_" fill="#CEA28B" points="804.9,464 809.4,464.8 804.8,468.9 803.8,466.5 				"/>
			</g>
		</g>
		<polygon id="XMLID_990_" fill="#CEAB97" points="811.9,475.2 808.9,479.7 805.2,478.8 796.5,480 794.1,481.3 790.6,476.2 
			787.5,474.1 788.1,487 796,500.4 806.3,500.4 814.3,487 814.9,474.9 		"/>
		<g id="XMLID_1210_">
			<polygon id="XMLID_989_" fill="#B6998A" points="814.9,474.9 806.3,500.4 814.3,487 			"/>
			<polygon id="XMLID_988_" fill="#B6998A" points="788.1,487 796,500.4 787.5,474.1 			"/>
		</g>
		<g id="XMLID_1207_">
			<polygon id="XMLID_987_" points="805.8,465.4 804.6,467 806,466.7 807.4,468 810.2,466.2 			"/>
			<polygon id="XMLID_986_" points="796.7,465.4 797.9,467 796.6,466.7 795.2,468 792.1,466.6 			"/>
		</g>
		<path id="XMLID_985_" fill="#A17A94" d="M840.2,665.6h-81.8c0,0,5.1-43.3,5-57.8c-0.1-14.4-6.1-57.5-6.1-57.5l43.4-15.7l44.4,15.7
			L840.2,665.6z"/>
		<path id="XMLID_984_" fill="#CEA28B" d="M751.7,773.9c0,0,3.2,11,12.4,2.5L751.7,773.9z"/>
		<path id="XMLID_983_" fill="#936C88" d="M786.8,637.7c36.4-18.9,45.9-69,45.9-69L786.8,637.7z"/>
		<path id="XMLID_982_" fill="#C9AC68" d="M835.9,894.1l-14.1-14.5l5.1,12.8v-0.3c0.8-0.2,1.7-0.3,2.7-0.3
			C832.4,891.8,834.7,892.8,835.9,894.1z"/>
		<path id="XMLID_981_" fill="#C9AC68" d="M735.1,893c1.3-0.7,2.9-1.2,4.8-1.2c1,0,1.9,0.1,2.7,0.3l6.8-15L735.1,893z"/>
		
			<linearGradient id="XMLID_7_" gradientUnits="userSpaceOnUse" x1="2069.7383" y1="462.9111" x2="2069.7383" y2="485.3521" gradientTransform="matrix(1 0 0 1 -1268.5535 0)">
			<stop  offset="0" style="stop-color:#CF9E76;stop-opacity:0"/>
			<stop  offset="0.4462" style="stop-color:#CF9E76"/>
			<stop  offset="1" style="stop-color:#B44921"/>
		</linearGradient>
		<polygon id="XMLID_980_" fill="url(#XMLID_7_)" points="803.5,473 802.9,473 804,463.9 798.4,463.9 799.5,473 798.9,473 
			798.2,477.1 799.2,477.7 800,479.7 800.3,479.7 802.1,479.7 802.4,479.7 803.3,477.7 804.2,477.1 		"/>
		<ellipse id="XMLID_979_" opacity="0.3" fill="#F1F2F2" cx="801.2" cy="475.7" rx="1.7" ry="1.3"/>
		<path id="XMLID_978_" fill="#72594B" d="M807.8,480.2c0,0-4.4,2.8-13.4,2.2L807.8,480.2z"/>
		<polygon id="XMLID_996_" fill="#685243" points="803.3,462.3 804,463.9 812.8,463.1 811,462.3 		"/>
		<path id="XMLID_811_" fill="#685243" d="M800.1,462.1l-2.2,0.9c0,0-4.1-3.9-7-1.7l2-2.2L800.1,462.1z"/>
		<path id="XMLID_810_" fill="#685243" d="M798.8,450c0,0-6.7,1.5-4.1,12.3c0,0-5.4-10.7,3.1-13.4C806.3,446.2,798.8,450,798.8,450z
			"/>
	</g>
	<g id="XMLID_1189_">
		<ellipse id="XMLID_1252_" fill="#406325" cx="267" cy="931.7" rx="232.2" ry="25.8"/>
		<path id="XMLID_977_" fill="#E6E7E8" d="M505.9,784.1c-21.3,111.4-128.8,183.5-240.2,161.1S81.3,814.5,102.5,703.1
			s128.8-183.5,240.2-161.1S527.1,672.8,505.9,784.1z"/>
		<path id="XMLID_1048_" fill="#ABADB0" d="M460.4,796.3C441.9,893.5,348,956.5,250.8,937s-161-114.2-142.4-211.4
			S220.8,565.3,318,584.9C415.2,604.4,479,699.1,460.4,796.3z"/>
		<polygon id="XMLID_975_" points="249.3,806.4 236.3,703.7 329.7,660.6 400.4,736.7 350.6,826.8 		"/>
		<g id="XMLID_1190_">
			<path id="XMLID_974_" d="M250,605.6l56.6-67.7c-57.5-1.3-111.4,21.8-150,61.3L250,605.6z"/>
			<path id="XMLID_973_" d="M168,742.7l-56.4-72.6c-3.9,10.5-7,21.5-9.2,32.9c-9.7,50.8,0.2,101,24.5,142.7L168,742.7z"/>
			<path id="XMLID_972_" d="M423.8,640.6l69,23.4c-18.6-43.4-51.8-80-94.6-102.4L423.8,640.6z"/>
			<path id="XMLID_971_" d="M291.2,862.4l-126.1,31.2c27.2,25.4,61.5,43.9,100.6,51.7c42.4,8.5,84.2,3.3,121-12.5L291.2,862.4z"/>
			<path id="XMLID_970_" d="M449.3,799.3l0.1,91.3c28.2-27.9,48.5-64.3,56.5-106.4c1.2-6.4,2.1-12.7,2.7-19L449.3,799.3z"/>
		</g>
	</g>
</g>
</svg>
